<svg xmlns="http://www.w3.org/2000/svg" viewBox="0 0 308 512">
  <path fill="currentColor" d="M62.8 96.3c-12.6 0-22.7 10.1-22.7 22.7l0 272.3c0 12.6 10.1 22.7 22.7 22.7l181.5 0c12.6 0 22.7-10.1 22.7-22.7l0-272.3c0-12.6-10.1-22.7-22.7-22.7l-181.5 0zM17.4 119c0-25 20.4-45.4 45.4-45.4l181.5 0c25 0 45.4 20.4 45.4 45.4l0 272.3c0 25-20.4 45.4-45.4 45.4l-181.5 0c-25 0-45.4-20.4-45.4-45.4l0-272.3zM258.3 10.6c0-5.9-4.7-10.6-10.5-10.6L59.3 0C53.6 0 48.9 4.8 48.9 10.6s4.7 10.6 10.5 10.6l188.5 0c5.8 0 10.5-4.8 10.5-10.6zm0 490.7c0-5.8-4.7-10.6-10.5-10.6l-188.5 0c-5.8 0-10.5 4.8-10.5 10.6S53.6 512 59.3 512l188.5 0c5.8 0 10.5-4.8 10.5-10.6z"/>
</svg>