<svg xmlns="http://www.w3.org/2000/svg" viewBox="0 0 512 512">
  <path fill="currentColor" d="M256.1 32c53 0 96 43 96 96l0 64-192 0 0-64c0-53 43-96 96-96zm-128 96l0 64-16 0c-44.2 0-80 35.8-80 80l0 160c0 44.2 35.8 80 80 80l288 0c44.2 0 80-35.8 80-80l0-160c0-44.2-35.8-80-80-80l-16 0 0-64c0-70.7-57.3-128-128-128s-128 57.3-128 128zm-16 96l288 0c26.5 0 48 21.5 48 48l0 160c0 26.5-21.5 48-48 48l-288 0c-26.5 0-48-21.5-48-48l0-160c0-26.5 21.5-48 48-48zm160 88c0-8.8-7.2-16-16-16s-16 7.2-16 16l0 80c0 8.8 7.2 16 16 16s16-7.2 16-16l0-80z"/>
</svg>