<svg xmlns="http://www.w3.org/2000/svg" viewBox="0 0 640 512">
  <path fill="currentColor" d="M576 182.9l0 256c0 20.2-16.3 36.6-36.6 36.6l-438.9 0c-20.2 0-36.6-16.3-36.6-36.6l0-256 512 0zm0-36.6l-111.3 0 99.8-99.8c7.1 6.6 11.5 16.1 11.5 26.6l0 73.1zm-285 0l109.7-109.7 122.1 0-109.7 109.7-122.1 0zm-51.8 0l-121.9 0 109.7-109.7 122.1 0-109.7 109.7-.1 0zM100.5 36.6l74.7 0-109.7 109.7-1.6 0 0-73.1c0-20.2 16.3-36.6 36.6-36.6zm512 109.7l0-73.1C612.6 32.8 579.8 0 539.4 0L100.5 0C60.2 0 27.4 32.8 27.4 73.1l0 73.1 0 18.3 0 18.3 0 256c0 40.3 32.8 73.1 73.1 73.1l438.9 0c40.3 0 73.1-32.8 73.1-73.1l0-256 0-18.3 0-18.3zM274.4 221.9c-5.6-3.3-12.7-3.3-18.4-.1s-9.3 9.3-9.3 15.9l0 182.9c0 6.5 3.5 12.6 9.3 15.9s12.7 3.2 18.4-.1l155.4-91.4c5.6-3.3 9-9.3 9-15.8s-3.4-12.5-9-15.8L274.4 221.9zM384.4 329.1l-101 59.4 0-118.9 101 59.4z"/>
</svg>